<mxfile host="Electron" agent="Mozilla/5.0 (Windows NT 10.0; Win64; x64) AppleWebKit/537.36 (KHTML, like Gecko) draw.io/27.0.9 Chrome/134.0.6998.205 Electron/35.4.0 Safari/537.36" version="27.0.9">
  <diagram name="Página-1" id="EuYNtzdfLdL1yPeoAdSK">
    <mxGraphModel dx="2404" dy="1102" grid="1" gridSize="10" guides="1" tooltips="1" connect="1" arrows="1" fold="1" page="1" pageScale="1" pageWidth="827" pageHeight="1169" math="0" shadow="0">
      <root>
        <mxCell id="0" />
        <mxCell id="1" parent="0" />
        <mxCell id="6V_bY_gtmc5qsXy4si-k-1" value="&lt;div style=&quot;line-height: 100%;&quot;&gt;&lt;div&gt;&lt;font style=&quot;font-size: 10px; color: rgb(0, 204, 0);&quot;&gt;Ejercicio 40: Alquiler de vehículos&lt;/font&gt;&lt;/div&gt;&lt;div&gt;&lt;font style=&quot;font-size: 10px; color: rgb(0, 204, 0);&quot;&gt;Una empresa de alquiler de vehículos desea conocer en todo momento el estado de su flota. La empresa tiene&lt;/font&gt;&lt;/div&gt;&lt;div&gt;&lt;font style=&quot;font-size: 10px; color: rgb(0, 204, 0);&quot;&gt;diversas oficinas repartidas por todo el territorio español.&lt;/font&gt;&lt;/div&gt;&lt;div&gt;&lt;font style=&quot;font-size: 10px; color: rgb(0, 204, 0);&quot;&gt;Cada oficina se identifica por un código único y se caracteriza por la ciudad en la que se encuentra y su&lt;/font&gt;&lt;/div&gt;&lt;div&gt;&lt;font style=&quot;font-size: 10px; color: rgb(0, 204, 0);&quot;&gt;dirección completa (calle, número y código postal) y teléfono.&lt;/font&gt;&lt;/div&gt;&lt;div&gt;&lt;font style=&quot;font-size: 10px; color: rgb(102, 255, 102);&quot;&gt;En cada oficina hay disponible un conjunto de coches, de los cuales se conoce su matrícula, el grupo al que&lt;/font&gt;&lt;/div&gt;&lt;div&gt;&lt;font style=&quot;font-size: 10px; color: rgb(102, 255, 102);&quot;&gt;pertenece: A, B, C, D, E, F o G (depende del tipo y tamaño del vehículo), la marca, el modelo, el número de&lt;/font&gt;&lt;/div&gt;&lt;div&gt;&lt;font style=&quot;font-size: 10px;&quot;&gt;&lt;font style=&quot;color: rgb(102, 255, 102);&quot;&gt;puertas, el número de plazas, la capacidad del maletero y la edad mínima exigida para el alquiler.&lt;/font&gt;&lt;font style=&quot;color: rgb(0, 204, 0);&quot;&gt;&lt;font style=&quot;color: rgb(102, 255, 102);&quot;&gt; &lt;/font&gt;Un coche&lt;/font&gt;&lt;/font&gt;&lt;/div&gt;&lt;div&gt;&lt;font style=&quot;font-size: 10px; color: rgb(0, 204, 0);&quot;&gt;solo estará disponible en una oficina, mientras que una oficina podrá tener muchos coches a disposición.&lt;/font&gt;&lt;/div&gt;&lt;div&gt;&lt;font style=&quot;font-size: 10px;&quot;&gt;Para llevar el control del estado de cada vehículo, la empresa mantiene un registro de todos los alquileres que&lt;/font&gt;&lt;/div&gt;&lt;div&gt;&lt;font style=&quot;font-size: 10px;&quot;&gt;los clientes han hecho, indicando para cada uno de ellos el nombre del conductor, su DNI, su dirección, un&lt;/font&gt;&lt;/div&gt;&lt;div&gt;&lt;font style=&quot;font-size: 10px;&quot;&gt;teléfono de contacto y un número de tarjeta de crédito sobre la que realizar los cargos correspondientes.&lt;/font&gt;&lt;/div&gt;&lt;div&gt;&lt;font style=&quot;font-size: 10px;&quot;&gt;Además de esta información de los clientes, para cada alquiler se almacena su duración (en días), el tipo de&lt;/font&gt;&lt;/div&gt;&lt;div&gt;&lt;font style=&quot;font-size: 10px;&quot;&gt;seguro contratado y el precio total.&lt;/font&gt;&lt;/div&gt;&lt;div&gt;&lt;font style=&quot;font-size: 10px;&quot;&gt;Hay que tener en cuenta que un cliente puede alquilar los coches que necesite, y un coche puede ser alquilado&lt;/font&gt;&lt;/div&gt;&lt;div&gt;&lt;font style=&quot;font-size: 10px;&quot;&gt;por muchos clientes, aunque uno solo al mismo tiempo.&lt;/font&gt;&lt;/div&gt;&lt;/div&gt;" style="text;html=1;align=left;verticalAlign=middle;whiteSpace=wrap;rounded=0;" vertex="1" parent="1">
          <mxGeometry x="30" y="80" width="580" height="200" as="geometry" />
        </mxCell>
        <mxCell id="6V_bY_gtmc5qsXy4si-k-2" value="oficina" style="whiteSpace=wrap;html=1;align=center;fillColor=#f0a30a;strokeColor=#BD7000;fontColor=#000000;" vertex="1" parent="1">
          <mxGeometry x="70" y="430" width="60" height="40" as="geometry" />
        </mxCell>
        <mxCell id="6V_bY_gtmc5qsXy4si-k-3" value="" style="endArrow=none;html=1;rounded=0;exitX=0.5;exitY=0;exitDx=0;exitDy=0;" edge="1" target="6V_bY_gtmc5qsXy4si-k-4" parent="1" source="6V_bY_gtmc5qsXy4si-k-2">
          <mxGeometry relative="1" as="geometry">
            <mxPoint x="40" y="365" as="sourcePoint" />
            <mxPoint x="100" y="365" as="targetPoint" />
          </mxGeometry>
        </mxCell>
        <mxCell id="6V_bY_gtmc5qsXy4si-k-4" value="&lt;u&gt;ciudad&lt;/u&gt;" style="ellipse;whiteSpace=wrap;html=1;align=center;" vertex="1" parent="1">
          <mxGeometry x="75" y="350" width="50" height="30" as="geometry" />
        </mxCell>
        <mxCell id="6V_bY_gtmc5qsXy4si-k-5" value="" style="endArrow=none;html=1;rounded=0;exitX=0.75;exitY=0;exitDx=0;exitDy=0;" edge="1" target="6V_bY_gtmc5qsXy4si-k-6" parent="1" source="6V_bY_gtmc5qsXy4si-k-2">
          <mxGeometry relative="1" as="geometry">
            <mxPoint x="140" y="390" as="sourcePoint" />
            <mxPoint x="190" y="385" as="targetPoint" />
          </mxGeometry>
        </mxCell>
        <mxCell id="6V_bY_gtmc5qsXy4si-k-6" value="calle" style="ellipse;whiteSpace=wrap;html=1;align=center;" vertex="1" parent="1">
          <mxGeometry x="120" y="380" width="50" height="30" as="geometry" />
        </mxCell>
        <mxCell id="6V_bY_gtmc5qsXy4si-k-7" value="" style="endArrow=none;html=1;rounded=0;exitX=0.25;exitY=0;exitDx=0;exitDy=0;" edge="1" target="6V_bY_gtmc5qsXy4si-k-8" parent="1" source="6V_bY_gtmc5qsXy4si-k-2">
          <mxGeometry relative="1" as="geometry">
            <mxPoint y="395" as="sourcePoint" />
            <mxPoint x="60" y="395" as="targetPoint" />
          </mxGeometry>
        </mxCell>
        <mxCell id="6V_bY_gtmc5qsXy4si-k-8" value="numero" style="ellipse;whiteSpace=wrap;html=1;align=center;" vertex="1" parent="1">
          <mxGeometry x="35" y="380" width="50" height="30" as="geometry" />
        </mxCell>
        <mxCell id="6V_bY_gtmc5qsXy4si-k-9" value="" style="endArrow=none;html=1;rounded=0;exitX=0;exitY=0.25;exitDx=0;exitDy=0;" edge="1" target="6V_bY_gtmc5qsXy4si-k-10" parent="1" source="6V_bY_gtmc5qsXy4si-k-2">
          <mxGeometry relative="1" as="geometry">
            <mxPoint x="-40" y="425" as="sourcePoint" />
            <mxPoint x="20" y="425" as="targetPoint" />
          </mxGeometry>
        </mxCell>
        <mxCell id="6V_bY_gtmc5qsXy4si-k-10" value="codPostal" style="ellipse;whiteSpace=wrap;html=1;align=center;" vertex="1" parent="1">
          <mxGeometry x="-20" y="410" width="65" height="30" as="geometry" />
        </mxCell>
        <mxCell id="6V_bY_gtmc5qsXy4si-k-11" value="" style="endArrow=none;html=1;rounded=0;exitX=0;exitY=0.5;exitDx=0;exitDy=0;" edge="1" target="6V_bY_gtmc5qsXy4si-k-12" parent="1" source="6V_bY_gtmc5qsXy4si-k-2">
          <mxGeometry relative="1" as="geometry">
            <mxPoint x="-55" y="455" as="sourcePoint" />
            <mxPoint x="5" y="455" as="targetPoint" />
          </mxGeometry>
        </mxCell>
        <mxCell id="6V_bY_gtmc5qsXy4si-k-12" value="telf" style="ellipse;whiteSpace=wrap;html=1;align=center;" vertex="1" parent="1">
          <mxGeometry x="-10" y="440" width="40" height="20" as="geometry" />
        </mxCell>
        <mxCell id="6V_bY_gtmc5qsXy4si-k-13" value="dispone" style="shape=rhombus;perimeter=rhombusPerimeter;whiteSpace=wrap;html=1;align=center;fillColor=#76608a;fontColor=#ffffff;strokeColor=#432D57;" vertex="1" parent="1">
          <mxGeometry x="190" y="430" width="90" height="40" as="geometry" />
        </mxCell>
        <mxCell id="6V_bY_gtmc5qsXy4si-k-14" value="" style="endArrow=none;html=1;rounded=0;exitX=0;exitY=0.5;exitDx=0;exitDy=0;entryX=1;entryY=0.5;entryDx=0;entryDy=0;" edge="1" source="6V_bY_gtmc5qsXy4si-k-13" parent="1" target="6V_bY_gtmc5qsXy4si-k-2">
          <mxGeometry relative="1" as="geometry">
            <mxPoint x="217" y="410" as="sourcePoint" />
            <mxPoint x="170" y="440" as="targetPoint" />
          </mxGeometry>
        </mxCell>
        <mxCell id="6V_bY_gtmc5qsXy4si-k-15" value="(1,1)" style="resizable=0;html=1;whiteSpace=wrap;align=right;verticalAlign=bottom;" connectable="0" vertex="1" parent="6V_bY_gtmc5qsXy4si-k-14">
          <mxGeometry x="1" relative="1" as="geometry">
            <mxPoint x="34" as="offset" />
          </mxGeometry>
        </mxCell>
        <mxCell id="6V_bY_gtmc5qsXy4si-k-16" value="" style="endArrow=none;html=1;rounded=0;exitX=1;exitY=0.5;exitDx=0;exitDy=0;entryX=-0.031;entryY=0.529;entryDx=0;entryDy=0;entryPerimeter=0;" edge="1" source="6V_bY_gtmc5qsXy4si-k-13" parent="1" target="6V_bY_gtmc5qsXy4si-k-18">
          <mxGeometry relative="1" as="geometry">
            <mxPoint x="217" y="410" as="sourcePoint" />
            <mxPoint x="340" y="450" as="targetPoint" />
          </mxGeometry>
        </mxCell>
        <mxCell id="6V_bY_gtmc5qsXy4si-k-17" value="(1,N)" style="resizable=0;html=1;whiteSpace=wrap;align=right;verticalAlign=bottom;" connectable="0" vertex="1" parent="6V_bY_gtmc5qsXy4si-k-16">
          <mxGeometry x="1" relative="1" as="geometry">
            <mxPoint as="offset" />
          </mxGeometry>
        </mxCell>
        <mxCell id="6V_bY_gtmc5qsXy4si-k-18" value="coche" style="whiteSpace=wrap;html=1;align=center;fillColor=#f0a30a;strokeColor=#BD7000;fontColor=#000000;" vertex="1" parent="1">
          <mxGeometry x="340" y="430" width="100" height="40" as="geometry" />
        </mxCell>
        <mxCell id="6V_bY_gtmc5qsXy4si-k-19" value="" style="endArrow=none;html=1;rounded=0;exitX=0.5;exitY=0;exitDx=0;exitDy=0;" edge="1" target="6V_bY_gtmc5qsXy4si-k-20" parent="1" source="6V_bY_gtmc5qsXy4si-k-18">
          <mxGeometry relative="1" as="geometry">
            <mxPoint x="340" y="375" as="sourcePoint" />
            <mxPoint x="400" y="375" as="targetPoint" />
          </mxGeometry>
        </mxCell>
        <mxCell id="6V_bY_gtmc5qsXy4si-k-20" value="&lt;u&gt;matricula&lt;/u&gt;" style="ellipse;whiteSpace=wrap;html=1;align=center;" vertex="1" parent="1">
          <mxGeometry x="362.5" y="360" width="55" height="30" as="geometry" />
        </mxCell>
        <mxCell id="6V_bY_gtmc5qsXy4si-k-21" value="" style="endArrow=none;html=1;rounded=0;exitX=0.75;exitY=0;exitDx=0;exitDy=0;" edge="1" target="6V_bY_gtmc5qsXy4si-k-22" parent="1" source="6V_bY_gtmc5qsXy4si-k-18">
          <mxGeometry relative="1" as="geometry">
            <mxPoint x="440" y="365" as="sourcePoint" />
            <mxPoint x="500" y="365" as="targetPoint" />
          </mxGeometry>
        </mxCell>
        <mxCell id="6V_bY_gtmc5qsXy4si-k-22" value="grupo" style="ellipse;whiteSpace=wrap;html=1;align=center;" vertex="1" parent="1">
          <mxGeometry x="420" y="370" width="50" height="30" as="geometry" />
        </mxCell>
        <mxCell id="6V_bY_gtmc5qsXy4si-k-23" value="" style="endArrow=none;html=1;rounded=0;exitX=1;exitY=0.5;exitDx=0;exitDy=0;" edge="1" target="6V_bY_gtmc5qsXy4si-k-24" parent="1" source="6V_bY_gtmc5qsXy4si-k-18">
          <mxGeometry relative="1" as="geometry">
            <mxPoint x="490" y="425" as="sourcePoint" />
            <mxPoint x="550" y="425" as="targetPoint" />
          </mxGeometry>
        </mxCell>
        <mxCell id="6V_bY_gtmc5qsXy4si-k-24" value="modelo" style="ellipse;whiteSpace=wrap;html=1;align=center;" vertex="1" parent="1">
          <mxGeometry x="490" y="430" width="50" height="30" as="geometry" />
        </mxCell>
        <mxCell id="6V_bY_gtmc5qsXy4si-k-25" value="" style="endArrow=none;html=1;rounded=0;exitX=1;exitY=0.25;exitDx=0;exitDy=0;" edge="1" target="6V_bY_gtmc5qsXy4si-k-26" parent="1" source="6V_bY_gtmc5qsXy4si-k-18">
          <mxGeometry relative="1" as="geometry">
            <mxPoint x="473" y="365" as="sourcePoint" />
            <mxPoint x="533" y="365" as="targetPoint" />
          </mxGeometry>
        </mxCell>
        <mxCell id="6V_bY_gtmc5qsXy4si-k-26" value="marca" style="ellipse;whiteSpace=wrap;html=1;align=center;" vertex="1" parent="1">
          <mxGeometry x="450" y="400" width="50" height="30" as="geometry" />
        </mxCell>
        <mxCell id="6V_bY_gtmc5qsXy4si-k-27" value="" style="endArrow=none;html=1;rounded=0;exitX=1;exitY=0.75;exitDx=0;exitDy=0;" edge="1" target="6V_bY_gtmc5qsXy4si-k-28" parent="1" source="6V_bY_gtmc5qsXy4si-k-18">
          <mxGeometry relative="1" as="geometry">
            <mxPoint x="450" y="485" as="sourcePoint" />
            <mxPoint x="510" y="485" as="targetPoint" />
          </mxGeometry>
        </mxCell>
        <mxCell id="6V_bY_gtmc5qsXy4si-k-28" value="&lt;u&gt;nPuertas&lt;/u&gt;" style="ellipse;whiteSpace=wrap;html=1;align=center;" vertex="1" parent="1">
          <mxGeometry x="450" y="460" width="55" height="30" as="geometry" />
        </mxCell>
        <mxCell id="6V_bY_gtmc5qsXy4si-k-29" value="" style="endArrow=none;html=1;rounded=0;exitX=0.75;exitY=1;exitDx=0;exitDy=0;" edge="1" target="6V_bY_gtmc5qsXy4si-k-30" parent="1" source="6V_bY_gtmc5qsXy4si-k-18">
          <mxGeometry relative="1" as="geometry">
            <mxPoint x="405" y="525" as="sourcePoint" />
            <mxPoint x="465" y="525" as="targetPoint" />
          </mxGeometry>
        </mxCell>
        <mxCell id="6V_bY_gtmc5qsXy4si-k-30" value="nPlazas" style="ellipse;whiteSpace=wrap;html=1;align=center;" vertex="1" parent="1">
          <mxGeometry x="440" y="500" width="50" height="30" as="geometry" />
        </mxCell>
        <mxCell id="6V_bY_gtmc5qsXy4si-k-31" value="" style="endArrow=none;html=1;rounded=0;exitX=0.25;exitY=0;exitDx=0;exitDy=0;" edge="1" target="6V_bY_gtmc5qsXy4si-k-32" parent="1" source="6V_bY_gtmc5qsXy4si-k-18">
          <mxGeometry relative="1" as="geometry">
            <mxPoint x="270" y="385" as="sourcePoint" />
            <mxPoint x="330" y="385" as="targetPoint" />
          </mxGeometry>
        </mxCell>
        <mxCell id="6V_bY_gtmc5qsXy4si-k-32" value="capacidad" style="ellipse;whiteSpace=wrap;html=1;align=center;" vertex="1" parent="1">
          <mxGeometry x="305" y="370" width="55" height="30" as="geometry" />
        </mxCell>
        <mxCell id="6V_bY_gtmc5qsXy4si-k-33" value="" style="endArrow=none;html=1;rounded=0;exitX=0;exitY=0.25;exitDx=0;exitDy=0;" edge="1" target="6V_bY_gtmc5qsXy4si-k-34" parent="1" source="6V_bY_gtmc5qsXy4si-k-18">
          <mxGeometry relative="1" as="geometry">
            <mxPoint x="230" y="415" as="sourcePoint" />
            <mxPoint x="290" y="415" as="targetPoint" />
          </mxGeometry>
        </mxCell>
        <mxCell id="6V_bY_gtmc5qsXy4si-k-34" value="edadMin" style="ellipse;whiteSpace=wrap;html=1;align=center;" vertex="1" parent="1">
          <mxGeometry x="280" y="400" width="50" height="30" as="geometry" />
        </mxCell>
        <mxCell id="6V_bY_gtmc5qsXy4si-k-37" value="alquila" style="shape=rhombus;perimeter=rhombusPerimeter;whiteSpace=wrap;html=1;align=center;fillColor=#76608a;fontColor=#ffffff;strokeColor=#432D57;" vertex="1" parent="1">
          <mxGeometry x="360" y="530" width="60" height="40" as="geometry" />
        </mxCell>
        <mxCell id="6V_bY_gtmc5qsXy4si-k-38" value="" style="endArrow=none;html=1;rounded=0;exitX=0.5;exitY=0;exitDx=0;exitDy=0;entryX=0.5;entryY=1;entryDx=0;entryDy=0;" edge="1" source="6V_bY_gtmc5qsXy4si-k-37" parent="1" target="6V_bY_gtmc5qsXy4si-k-18">
          <mxGeometry relative="1" as="geometry">
            <mxPoint x="307" y="570" as="sourcePoint" />
            <mxPoint x="260" y="600" as="targetPoint" />
          </mxGeometry>
        </mxCell>
        <mxCell id="6V_bY_gtmc5qsXy4si-k-39" value="(1,N)" style="resizable=0;html=1;whiteSpace=wrap;align=right;verticalAlign=bottom;" connectable="0" vertex="1" parent="6V_bY_gtmc5qsXy4si-k-38">
          <mxGeometry x="1" relative="1" as="geometry">
            <mxPoint x="30" y="30" as="offset" />
          </mxGeometry>
        </mxCell>
        <mxCell id="6V_bY_gtmc5qsXy4si-k-40" value="" style="endArrow=none;html=1;rounded=0;exitX=0.5;exitY=1;exitDx=0;exitDy=0;entryX=0.5;entryY=0;entryDx=0;entryDy=0;" edge="1" source="6V_bY_gtmc5qsXy4si-k-37" parent="1" target="6V_bY_gtmc5qsXy4si-k-42">
          <mxGeometry relative="1" as="geometry">
            <mxPoint x="307" y="570" as="sourcePoint" />
            <mxPoint x="390" y="640" as="targetPoint" />
          </mxGeometry>
        </mxCell>
        <mxCell id="6V_bY_gtmc5qsXy4si-k-41" value="(1,N)" style="resizable=0;html=1;whiteSpace=wrap;align=right;verticalAlign=bottom;" connectable="0" vertex="1" parent="6V_bY_gtmc5qsXy4si-k-40">
          <mxGeometry x="1" relative="1" as="geometry">
            <mxPoint as="offset" />
          </mxGeometry>
        </mxCell>
        <mxCell id="6V_bY_gtmc5qsXy4si-k-42" value="cliente" style="whiteSpace=wrap;html=1;align=center;fillColor=#f0a30a;strokeColor=#BD7000;fontColor=#000000;" vertex="1" parent="1">
          <mxGeometry x="362.5" y="620" width="55" height="40" as="geometry" />
        </mxCell>
      </root>
    </mxGraphModel>
  </diagram>
</mxfile>
